<?xml version="1.0" standalone="no"?>
<!DOCTYPE svg PUBLIC "-//W3C//DTD SVG 20010904//EN"
 "http://www.w3.org/TR/2001/REC-SVG-20010904/DTD/svg10.dtd">
<svg version="1.0" xmlns="http://www.w3.org/2000/svg"
 width="500.000000pt" height="500.000000pt" viewBox="0 0 500.000000 500.000000"
 preserveAspectRatio="xMidYMid meet">

<g transform="translate(0.000000,500.000000) scale(0.100000,-0.100000)"
fill="#000000" stroke="none">
<path d="M340 3441 l0 -331 70 0 70 0 0 114 0 113 98 6 c120 7 167 22 213 68
95 95 65 270 -57 330 -45 22 -63 24 -221 27 l-173 3 0 -330z m319 205 c32 -17
51 -54 51 -99 0 -68 -49 -97 -167 -97 l-63 0 0 105 0 105 75 0 c46 0 87 -6
104 -14z"/>
<path d="M2310 3440 l0 -330 40 0 40 0 0 330 0 330 -40 0 -40 0 0 -330z"/>
<path d="M4510 3660 l0 -60 -45 0 c-43 0 -45 -1 -45 -29 0 -28 3 -30 43 -33
l42 -3 5 -187 c5 -180 6 -187 29 -212 26 -28 77 -42 116 -32 20 5 25 12 25 40
0 30 -2 33 -25 28 -16 -3 -33 2 -45 13 -18 17 -20 32 -20 187 l0 168 45 0 c43
0 45 1 45 30 0 29 -2 30 -45 30 l-45 0 0 60 0 60 -40 0 -40 0 0 -60z"/>
<path d="M1110 3593 c-14 -9 -30 -24 -37 -33 -11 -13 -12 -11 -13 13 0 27 -1
27 -65 27 l-65 0 0 -245 0 -245 65 0 65 0 0 160 c0 157 1 161 25 185 19 20 34
25 75 25 l50 0 0 65 0 65 -38 0 c-21 0 -49 -8 -62 -17z"/>
<path d="M1402 3597 c-112 -41 -172 -170 -143 -310 29 -136 151 -211 291 -177
132 32 201 183 154 341 -37 124 -176 191 -302 146z m151 -127 c47 -55 45 -184
-4 -236 -31 -34 -97 -34 -128 0 -48 51 -50 182 -4 237 20 24 32 29 68 29 36 0
48 -5 68 -30z"/>
<path d="M2701 3599 c-13 -5 -36 -18 -52 -30 l-29 -20 0 25 c0 24 -4 26 -40
26 l-40 0 0 -245 0 -245 40 0 40 0 0 175 0 175 33 35 c53 59 149 58 176 -1 7
-16 11 -92 11 -204 l0 -180 46 0 46 0 -4 193 c-4 218 -14 254 -78 289 -37 19
-109 23 -149 7z"/>
<path d="M3610 3588 c-116 -59 -165 -240 -100 -367 65 -128 245 -161 348 -64
l36 34 -22 22 c-19 18 -25 20 -40 9 -58 -42 -81 -52 -117 -52 -71 0 -130 51
-142 124 l-6 36 167 0 166 0 0 43 c0 56 -24 137 -52 172 -50 63 -159 83 -238
43z m160 -75 c23 -20 33 -40 37 -70 l6 -43 -122 0 c-72 0 -121 4 -121 10 0 5
7 28 17 51 31 78 124 105 183 52z"/>
<path d="M4080 3588 c-59 -31 -85 -68 -85 -125 0 -66 44 -103 158 -133 96 -25
127 -47 127 -89 0 -41 -31 -64 -93 -68 -61 -5 -113 21 -123 62 -5 21 -12 25
-45 25 -33 0 -39 -3 -39 -21 0 -35 39 -88 81 -109 115 -59 273 -17 298 78 25
90 -21 142 -159 182 -98 28 -120 43 -120 80 0 86 168 95 195 10 5 -16 15 -20
47 -20 40 0 40 0 34 32 -19 97 -170 150 -276 96z"/>
<path d="M1781 3578 c7 -13 36 -64 65 -115 30 -50 54 -96 54 -102 0 -9 -50
-98 -122 -218 l-20 -33 71 0 70 0 45 76 44 77 43 -76 44 -77 68 0 c37 0 67 3
67 6 0 3 -32 59 -70 125 l-70 120 51 87 c28 48 60 102 71 120 l20 32 -71 0
-70 0 -42 -71 -41 -71 -19 30 c-10 17 -27 49 -39 71 l-20 41 -71 0 c-69 0 -70
0 -58 -22z"/>
<path d="M3010 3594 c0 -3 39 -114 87 -245 l86 -239 32 0 32 0 83 233 c46 127
85 238 88 245 3 10 -6 12 -39 10 l-43 -3 -60 -185 -60 -184 -61 184 -62 185
-41 3 c-23 2 -42 0 -42 -4z"/>
<path d="M2160 2864 c-424 -50 -769 -183 -975 -375 -233 -217 -236 -475 -8
-691 202 -191 519 -317 958 -380 121 -17 609 -17 730 0 439 63 756 189 958
380 228 216 225 474 -8 691 -208 194 -554 326 -985 375 -166 20 -508 19 -670
0z m750 -49 c167 -26 248 -44 364 -82 327 -105 552 -257 637 -428 42 -86 52
-192 24 -274 -86 -259 -480 -480 -1005 -564 -116 -18 -176 -21 -430 -21 -336
0 -460 14 -695 79 -404 111 -670 293 -740 506 -28 82 -18 188 24 274 85 171
310 323 637 428 143 46 277 73 514 101 91 11 569 -2 670 -19z"/>
<path d="M1975 2608 c-2 -7 -6 -30 -7 -51 -3 -35 -7 -40 -39 -51 -87 -30 -133
-92 -133 -181 0 -102 57 -164 204 -220 79 -30 110 -61 110 -112 0 -106 -171
-114 -198 -10 -8 32 -9 32 -72 32 -74 0 -79 -6 -60 -74 15 -55 70 -107 136
-128 l53 -16 3 -46 3 -46 53 -3 52 -3 0 51 c0 40 4 52 18 56 97 28 152 97 152
188 -1 107 -46 158 -192 217 -97 40 -118 61 -118 116 0 57 25 83 80 83 47 0
78 -25 87 -70 6 -35 27 -43 94 -38 51 4 56 14 39 80 -14 51 -71 110 -121 124
-32 9 -34 12 -37 62 l-3 52 -50 0 c-31 0 -51 -5 -54 -12z"/>
<path d="M2810 2550 l0 -70 -91 0 -90 0 3 -42 3 -43 45 -3 c24 -2 50 -8 57
-14 18 -15 19 -408 1 -426 -7 -7 -29 -12 -49 -12 -34 0 -37 -2 -43 -37 -10
-65 -13 -63 79 -63 l85 0 0 -70 0 -70 45 0 45 0 0 70 0 70 30 0 30 0 0 -70 0
-70 45 0 45 0 0 69 0 68 48 6 c78 10 120 26 156 60 40 38 61 103 52 164 -7 56
-29 87 -76 111 l-38 19 28 27 c45 42 52 126 15 183 -20 30 -84 62 -140 70
l-45 6 0 68 0 69 -45 0 -45 0 0 -70 0 -70 -30 0 -30 0 0 70 0 70 -45 0 -45 0
0 -70z m213 -171 c49 -13 77 -42 77 -77 0 -45 -38 -73 -112 -82 -35 -4 -69 -5
-75 -3 -9 4 -13 31 -13 89 l0 84 43 0 c23 0 59 -5 80 -11z m76 -276 c35 -26
48 -65 33 -97 -17 -38 -67 -59 -154 -64 l-78 -5 0 98 0 98 86 -6 c64 -4 93
-10 113 -24z"/>
</g>
</svg>
